<svg xmlns="http://www.w3.org/2000/svg" xmlns:xlink="http://www.w3.org/1999/xlink" width="1472" zoomAndPan="magnify" viewBox="0 0 1104 623.999998" height="832" preserveAspectRatio="xMidYMid meet" version="1.2"><defs><clipPath id="f57a8d3e84"><path d="M 95 107.027344 L 246 107.027344 L 246 502 L 95 502 Z M 95 107.027344 "/></clipPath><clipPath id="6fab7847fa"><path d="M 268 107.027344 L 420 107.027344 L 420 502 L 268 502 Z M 268 107.027344 "/></clipPath><clipPath id="2bcb7574b0"><path d="M 485 159 L 514.5 159 L 514.5 438 L 485 438 Z M 485 159 "/></clipPath><clipPath id="16ad6cfd71"><path d="M 492 160.007812 L 1094 160.007812 L 1094 437.507812 L 492 437.507812 Z M 492 160.007812 "/></clipPath><clipPath id="59f5c22795"><rect x="0" width="490" y="0" height="119"/></clipPath></defs><g id="3b11094172"><g clip-rule="nonzero" clip-path="url(#f57a8d3e84)"><path style=" stroke:none;fill-rule:nonzero;fill:#007a3f;fill-opacity:1;" d="M 95.410156 107.140625 L 95.410156 370.316406 C 132.238281 395.378906 161.164062 416.984375 182.183594 435.128906 C 193.03125 444.476562 203.226562 453.984375 212.761719 463.65625 C 226.402344 477.632812 236.570312 490.394531 243.261719 501.941406 L 245.976562 501.941406 L 245.992188 251.296875 C 244.554688 251.171875 243.28125 250.574219 242.171875 249.507812 L 106.609375 113.9375 Z M 95.410156 107.140625 "/></g><g clip-rule="nonzero" clip-path="url(#6fab7847fa)"><path style=" stroke:none;fill-rule:nonzero;fill:#007a3f;fill-opacity:1;" d="M 419.320312 107.140625 L 406.917969 115.148438 L 272.558594 249.507812 C 271.449219 250.574219 270.175781 251.171875 268.738281 251.296875 L 268.753906 501.941406 L 271.46875 501.941406 C 281.304688 485.785156 296.507812 468.144531 317.070312 449.015625 C 345.121094 424.457031 363.558594 409.273438 372.386719 403.46875 C 386.691406 392.792969 402.335938 381.742188 419.320312 370.320312 Z M 419.320312 107.140625 "/></g><path style=" stroke:none;fill-rule:nonzero;fill:#007a3f;fill-opacity:1;" d="M 434.953125 124.402344 L 467.867188 124.402344 L 467.867188 403.234375 C 456.894531 403.234375 445.925781 403.238281 434.953125 403.238281 C 434.953125 310.292969 434.953125 217.347656 434.953125 124.402344 "/><path style=" stroke:none;fill-rule:nonzero;fill:#007a3f;fill-opacity:1;" d="M 79.777344 124.402344 L 46.867188 124.402344 L 46.867188 403.234375 C 57.835938 403.234375 68.804688 403.238281 79.777344 403.238281 C 79.777344 310.292969 79.777344 217.347656 79.777344 124.402344 "/><g clip-rule="nonzero" clip-path="url(#2bcb7574b0)"><path style=" stroke:none;fill-rule:nonzero;fill:#007a3f;fill-opacity:1;" d="M 485.964844 159.769531 L 514.765625 159.769531 C 514.765625 252.441406 514.765625 345.109375 514.765625 437.78125 C 505.164062 437.78125 495.566406 437.78125 485.964844 437.78125 C 485.964844 345.113281 485.964844 252.441406 485.964844 159.769531 "/></g><path style=" stroke:none;fill-rule:nonzero;fill:#007a3f;fill-opacity:1;" d="M 28.765625 159.769531 L -0.03125 159.769531 C -0.03125 252.441406 -0.03125 345.109375 -0.03125 437.78125 C 9.566406 437.78125 19.164062 437.78125 28.765625 437.78125 C 28.765625 345.113281 28.765625 252.441406 28.765625 159.769531 "/><path style=" stroke:none;fill-rule:nonzero;fill:#007a3f;fill-opacity:1;" d="M 445.035156 376.566406 L 431.269531 383.796875 C 426.058594 386.371094 414.164062 393.105469 395.59375 403.992188 C 388.601562 408.230469 382.230469 412.304688 376.488281 416.210938 C 367.671875 422.117188 356.011719 431.175781 341.507812 443.375 C 307.605469 471.164062 287.199219 492.917969 280.296875 508.636719 C 343.367188 464.144531 385.964844 435.925781 408.082031 423.984375 C 428.570312 412.710938 447.488281 405.960938 464.835938 403.742188 L 445.035156 376.566406 "/><path style=" stroke:none;fill-rule:nonzero;fill:#007a3f;fill-opacity:1;" d="M 69.695312 376.566406 L 83.460938 383.796875 C 88.671875 386.371094 100.566406 393.105469 119.136719 403.992188 C 126.128906 408.230469 132.5 412.304688 138.242188 416.210938 C 147.058594 422.117188 158.71875 431.175781 173.222656 443.375 C 207.125 471.164062 227.53125 492.917969 234.433594 508.636719 C 171.363281 464.144531 128.765625 435.925781 106.648438 423.984375 C 86.160156 412.710938 67.242188 405.960938 49.894531 403.742188 L 69.695312 376.566406 "/><path style=" stroke:none;fill-rule:nonzero;fill:#007a3f;fill-opacity:1;" d="M 505.585938 414.25 L 472.945312 424.542969 C 430.933594 438.4375 394.953125 453.019531 365 468.285156 L 343.664062 479.859375 L 324.589844 491.695312 L 307.777344 503.785156 L 293.226562 516.132812 C 293.355469 516.625 293.898438 516.726562 294.851562 516.429688 C 373.828125 479.578125 418.023438 459.933594 427.429688 457.492188 C 447.886719 449.296875 475.960938 442.054688 511.660156 435.769531 L 505.585938 414.25 "/><path style=" stroke:none;fill-rule:nonzero;fill:#007a3f;fill-opacity:1;" d="M 9.144531 414.25 L 41.785156 424.542969 C 83.796875 438.4375 119.777344 453.019531 149.730469 468.285156 L 171.066406 479.859375 L 190.140625 491.695312 L 206.953125 503.785156 L 221.503906 516.132812 C 221.375 516.625 220.832031 516.726562 219.878906 516.429688 C 140.902344 479.578125 96.707031 459.933594 87.300781 457.492188 C 66.84375 449.296875 38.769531 442.054688 3.070312 435.769531 L 9.144531 414.25 "/><g clip-rule="nonzero" clip-path="url(#16ad6cfd71)"><path style=" stroke:none;fill-rule:nonzero;fill:#007a3f;fill-opacity:1;" d="M 492.539062 159.84375 L 1078.867188 159.84375 C 1092.570312 159.84375 1097.230469 168.996094 1089.269531 180.085938 L 1018.722656 278.546875 C 1010.804688 289.597656 1010.804688 307.796875 1018.722656 318.867188 L 1089.269531 417.328125 C 1097.230469 428.398438 1092.59375 437.507812 1078.867188 437.507812 L 492.539062 437.507812 Z M 492.539062 159.84375 "/></g><g transform="matrix(1,0,0,1,514,239)"><g clip-path="url(#59f5c22795)"><g style="fill:#ffffff;fill-opacity:1;"><g transform="translate(0.842049, 95.309332)"><path style="stroke:none" d="M 21.703125 0 L 2.09375 -71.671875 L 10.921875 -71.671875 L 25.890625 -13.296875 L 26.59375 -13.296875 L 41.859375 -71.671875 L 51.65625 -71.671875 L 66.90625 -13.296875 L 67.609375 -13.296875 L 82.59375 -71.671875 L 91.40625 -71.671875 L 71.8125 0 L 62.859375 0 L 47.03125 -57.109375 L 46.46875 -57.109375 L 30.65625 0 Z M 21.703125 0 "/></g></g><g style="fill:#ffffff;fill-opacity:1;"><g transform="translate(94.346572, 95.309332)"><path style="stroke:none" d="M 8.671875 0 L 8.671875 -71.671875 L 32.890625 -71.671875 C 38.515625 -71.671875 43.117188 -70.660156 46.703125 -68.640625 C 50.285156 -66.617188 52.9375 -63.894531 54.65625 -60.46875 C 56.382812 -57.039062 57.25 -53.21875 57.25 -49 C 57.25 -44.769531 56.390625 -40.925781 54.671875 -37.46875 C 52.960938 -34.019531 50.320312 -31.273438 46.75 -29.234375 C 43.1875 -27.191406 38.613281 -26.171875 33.03125 -26.171875 L 17.359375 -26.171875 L 17.359375 0 Z M 17.359375 -33.875 L 32.75 -33.875 C 38.519531 -33.875 42.625 -35.316406 45.0625 -38.203125 C 47.5 -41.097656 48.71875 -44.695312 48.71875 -49 C 48.71875 -53.3125 47.488281 -56.882812 45.03125 -59.71875 C 42.582031 -62.550781 38.441406 -63.96875 32.609375 -63.96875 L 17.359375 -63.96875 Z M 17.359375 -33.875 "/></g></g><g style="fill:#ffffff;fill-opacity:1;"><g transform="translate(156.91622, 95.309332)"><path style="stroke:none" d="M 8.671875 0 L 8.671875 -71.671875 L 51.9375 -71.671875 L 51.9375 -63.96875 L 17.359375 -63.96875 L 17.359375 -39.75 L 49.6875 -39.75 L 49.6875 -32.0625 L 17.359375 -32.0625 L 17.359375 -7.703125 L 52.5 -7.703125 L 52.5 0 Z M 8.671875 0 "/></g></g><g style="fill:#ffffff;fill-opacity:1;"><g transform="translate(215.846461, 95.309332)"><path style="stroke:none" d="M 47.875 -53.75 C 47.457031 -57.300781 45.753906 -60.054688 42.765625 -62.015625 C 39.773438 -63.972656 36.113281 -64.953125 31.78125 -64.953125 C 27.019531 -64.953125 23.191406 -63.828125 20.296875 -61.578125 C 17.398438 -59.328125 15.953125 -56.484375 15.953125 -53.046875 C 15.953125 -50.484375 16.738281 -48.414062 18.3125 -46.84375 C 19.894531 -45.269531 21.765625 -44.046875 23.921875 -43.171875 C 26.078125 -42.296875 28.039062 -41.625 29.8125 -41.15625 L 37.09375 -39.1875 C 38.957031 -38.695312 41.035156 -38.019531 43.328125 -37.15625 C 45.628906 -36.300781 47.835938 -35.128906 49.953125 -33.640625 C 52.066406 -32.160156 53.8125 -30.265625 55.1875 -27.953125 C 56.5625 -25.648438 57.25 -22.816406 57.25 -19.453125 C 57.25 -15.578125 56.238281 -12.078125 54.21875 -8.953125 C 52.207031 -5.828125 49.269531 -3.34375 45.40625 -1.5 C 41.539062 0.34375 36.859375 1.265625 31.359375 1.265625 C 23.660156 1.265625 17.546875 -0.550781 13.015625 -4.1875 C 8.492188 -7.832031 6.019531 -12.597656 5.59375 -18.484375 L 14.5625 -18.484375 C 14.789062 -15.773438 15.703125 -13.539062 17.296875 -11.78125 C 18.898438 -10.019531 20.929688 -8.710938 23.390625 -7.859375 C 25.859375 -7.003906 28.515625 -6.578125 31.359375 -6.578125 C 34.671875 -6.578125 37.644531 -7.117188 40.28125 -8.203125 C 42.914062 -9.285156 45.003906 -10.800781 46.546875 -12.75 C 48.085938 -14.695312 48.859375 -16.976562 48.859375 -19.59375 C 48.859375 -21.976562 48.191406 -23.914062 46.859375 -25.40625 C 45.523438 -26.894531 43.773438 -28.109375 41.609375 -29.046875 C 39.441406 -29.984375 37.097656 -30.800781 34.578125 -31.5 L 25.75 -34.015625 C 20.15625 -35.628906 15.722656 -37.925781 12.453125 -40.90625 C 9.191406 -43.894531 7.5625 -47.804688 7.5625 -52.640625 C 7.5625 -56.648438 8.648438 -60.148438 10.828125 -63.140625 C 13.015625 -66.140625 15.957031 -68.472656 19.65625 -70.140625 C 23.351562 -71.816406 27.488281 -72.65625 32.0625 -72.65625 C 36.675781 -72.65625 40.78125 -71.832031 44.375 -70.1875 C 47.96875 -68.539062 50.816406 -66.289062 52.921875 -63.4375 C 55.035156 -60.59375 56.148438 -57.363281 56.265625 -53.75 Z M 47.875 -53.75 "/></g></g><g style="fill:#ffffff;fill-opacity:1;"><g transform="translate(278.696053, 95.309332)"><path style="stroke:none" d="M 8.671875 0 L 8.671875 -71.671875 L 51.65625 -71.671875 L 51.65625 -63.96875 L 17.359375 -63.96875 L 17.359375 -39.75 L 48.4375 -39.75 L 48.4375 -32.0625 L 17.359375 -32.0625 L 17.359375 0 Z M 8.671875 0 "/></g></g><g style="fill:#ffffff;fill-opacity:1;"><g transform="translate(336.506461, 95.309332)"><path style="stroke:none" d="M 8.671875 -71.671875 L 19.03125 -71.671875 L 43.390625 -12.171875 L 44.234375 -12.171875 L 68.59375 -71.671875 L 78.953125 -71.671875 L 78.953125 0 L 70.828125 0 L 70.828125 -54.453125 L 70.125 -54.453125 L 47.734375 0 L 39.890625 0 L 17.5 -54.453125 L 16.796875 -54.453125 L 16.796875 0 L 8.671875 0 Z M 8.671875 -71.671875 "/></g></g><g style="fill:#ffffff;fill-opacity:1;"><g transform="translate(426.371616, 95.309332)"><path style="stroke:none" d="M 47.875 -53.75 C 47.457031 -57.300781 45.753906 -60.054688 42.765625 -62.015625 C 39.773438 -63.972656 36.113281 -64.953125 31.78125 -64.953125 C 27.019531 -64.953125 23.191406 -63.828125 20.296875 -61.578125 C 17.398438 -59.328125 15.953125 -56.484375 15.953125 -53.046875 C 15.953125 -50.484375 16.738281 -48.414062 18.3125 -46.84375 C 19.894531 -45.269531 21.765625 -44.046875 23.921875 -43.171875 C 26.078125 -42.296875 28.039062 -41.625 29.8125 -41.15625 L 37.09375 -39.1875 C 38.957031 -38.695312 41.035156 -38.019531 43.328125 -37.15625 C 45.628906 -36.300781 47.835938 -35.128906 49.953125 -33.640625 C 52.066406 -32.160156 53.8125 -30.265625 55.1875 -27.953125 C 56.5625 -25.648438 57.25 -22.816406 57.25 -19.453125 C 57.25 -15.578125 56.238281 -12.078125 54.21875 -8.953125 C 52.207031 -5.828125 49.269531 -3.34375 45.40625 -1.5 C 41.539062 0.34375 36.859375 1.265625 31.359375 1.265625 C 23.660156 1.265625 17.546875 -0.550781 13.015625 -4.1875 C 8.492188 -7.832031 6.019531 -12.597656 5.59375 -18.484375 L 14.5625 -18.484375 C 14.789062 -15.773438 15.703125 -13.539062 17.296875 -11.78125 C 18.898438 -10.019531 20.929688 -8.710938 23.390625 -7.859375 C 25.859375 -7.003906 28.515625 -6.578125 31.359375 -6.578125 C 34.671875 -6.578125 37.644531 -7.117188 40.28125 -8.203125 C 42.914062 -9.285156 45.003906 -10.800781 46.546875 -12.75 C 48.085938 -14.695312 48.859375 -16.976562 48.859375 -19.59375 C 48.859375 -21.976562 48.191406 -23.914062 46.859375 -25.40625 C 45.523438 -26.894531 43.773438 -28.109375 41.609375 -29.046875 C 39.441406 -29.984375 37.097656 -30.800781 34.578125 -31.5 L 25.75 -34.015625 C 20.15625 -35.628906 15.722656 -37.925781 12.453125 -40.90625 C 9.191406 -43.894531 7.5625 -47.804688 7.5625 -52.640625 C 7.5625 -56.648438 8.648438 -60.148438 10.828125 -63.140625 C 13.015625 -66.140625 15.957031 -68.472656 19.65625 -70.140625 C 23.351562 -71.816406 27.488281 -72.65625 32.0625 -72.65625 C 36.675781 -72.65625 40.78125 -71.832031 44.375 -70.1875 C 47.96875 -68.539062 50.816406 -66.289062 52.921875 -63.4375 C 55.035156 -60.59375 56.148438 -57.363281 56.265625 -53.75 Z M 47.875 -53.75 "/></g></g></g></g></g></svg>